<?xml version="1.0" standalone="no"?>
<!DOCTYPE svg PUBLIC "-//W3C//DTD SVG 20010904//EN"
 "http://www.w3.org/TR/2001/REC-SVG-20010904/DTD/svg10.dtd">
<svg version="1.0" xmlns="http://www.w3.org/2000/svg"
 width="480.000000pt" height="240.000000pt" viewBox="0 0 480.000000 240.000000"
 preserveAspectRatio="xMidYMid meet">

<g transform="translate(0.000000,240.000000) scale(0.100000,-0.100000)"
fill="#000000" stroke="none">
<path stroke="white" d="M2290 1960 c0 -12 4 -62 9 -113 5 -51 12 -129 16 -174 l5 -83 -95 0
-96 0 3 -32 c3 -33 4 -33 61 -36 l57 -3 0 -64 0 -65 -152 -1 c-84 -1 -144 -4
-132 -6 18 -3 21 -12 22 -56 0 -29 -2 -46 -4 -39 -4 7 -25 12 -57 11 -29 0
-46 -3 -39 -6 6 -2 10 -9 6 -14 -3 -5 7 -9 23 -9 22 0 25 2 13 10 -12 8 -9 10
12 10 27 0 27 -1 26 -55 -1 -52 -3 -55 -27 -54 -22 0 -23 1 -7 8 17 7 18 8 3
14 -9 3 -24 -1 -33 -11 -16 -16 -15 -17 22 -24 45 -7 51 -3 56 37 6 61 22 17
24 -70 2 -49 0 -82 -2 -72 -3 9 -9 17 -12 18 -4 0 -23 2 -42 5 -19 3 -65 0
-101 -6 -60 -10 -69 -10 -104 10 -27 15 -41 18 -48 11 -6 -6 -19 -11 -29 -11
-10 0 -18 -4 -18 -10 0 -5 -12 -10 -27 -9 -25 0 -26 1 -8 9 11 5 15 9 8 9 -6
1 -19 4 -29 8 -13 5 -15 3 -9 -8 5 -8 -1 -6 -13 5 -12 10 -19 23 -16 28 3 5 1
14 -4 21 -15 18 -10 181 7 200 7 9 16 16 19 15 20 -2 28 4 28 22 0 11 -4 20
-8 20 -4 0 -8 -4 -8 -10 0 -5 -8 -10 -17 -10 -10 0 -26 -12 -37 -26 -16 -23
-18 -39 -12 -150 5 -108 4 -125 -10 -131 -9 -3 -20 0 -25 8 -6 10 -9 10 -9 2
0 -24 -28 -13 -55 23 -15 19 -25 38 -22 40 3 3 15 -11 27 -30 12 -20 24 -36
27 -36 3 0 -3 12 -13 28 -56 87 -68 102 -77 102 -6 0 -1 -10 11 -23 26 -27 29
-46 5 -26 -15 13 -16 11 -9 -21 3 -19 11 -36 16 -38 6 -2 10 -10 10 -18 0 -16
-26 -19 -35 -4 -8 13 -72 13 -80 0 -4 -6 -51 -10 -113 -9 -59 1 -100 4 -91 8
12 5 8 10 -18 23 l-34 16 18 -21 c14 -18 13 -17 -10 2 -27 24 -38 49 -15 35 7
-4 8 -3 4 4 -10 16 -26 15 -26 -2 0 -28 -59 -66 -103 -66 -31 0 -38 3 -27 10
10 7 -9 10 -63 10 -50 0 -76 -4 -72 -10 3 -5 0 -10 -7 -10 -10 0 -13 40 -13
190 0 117 -4 192 -10 194 -5 3 27 4 72 2 45 -1 85 -5 89 -9 14 -14 62 -7 68
10 10 25 -2 31 -87 42 -121 17 -181 14 -201 -8 -13 -15 -35 -20 -94 -23 -59
-3 -90 -10 -132 -32 -57 -28 -132 -85 -95 -71 11 4 57 10 102 13 69 4 93 1
148 -19 62 -22 65 -24 65 -55 0 -45 19 -84 42 -84 11 0 18 -7 18 -20 0 -15 -7
-20 -26 -20 -14 0 -23 -4 -19 -10 3 -5 1 -10 -4 -10 -6 0 -11 -7 -11 -16 0
-12 -6 -15 -26 -10 -20 5 -27 3 -31 -13 -3 -12 -9 -18 -14 -15 -5 3 -33 -3
-62 -12 -84 -29 -232 -19 -342 22 -56 21 100 -86 170 -117 68 -30 171 -30 239
0 l49 22 27 -26 c22 -21 35 -25 89 -25 49 0 77 -7 125 -29 33 -16 81 -32 106
-36 42 -6 47 -4 79 29 l35 36 110 0 c107 0 109 0 92 19 -24 27 -12 41 35 41
31 0 39 -4 39 -18 0 -10 -5 -23 -12 -30 -9 -9 1 -12 45 -12 31 0 57 4 57 9 0
5 -7 8 -16 7 -9 0 -23 10 -32 24 -16 24 -16 24 1 11 15 -12 17 -11 17 3 0 13
6 15 28 10 35 -9 39 -13 22 -24 -10 -7 -11 -10 -2 -10 6 0 12 -7 12 -15 0 -12
31 -14 206 -14 l205 0 15 32 15 32 -5 -32 c-5 -27 -2 -33 12 -33 10 0 23 -5
30 -12 9 -9 14 -6 21 13 7 18 10 20 10 6 1 -11 6 -15 12 -11 6 3 15 0 20 -7 7
-11 12 -12 29 -1 11 7 52 12 95 12 80 0 98 13 45 33 -16 6 -30 15 -30 19 0 14
37 8 51 -8 7 -8 20 -14 28 -11 14 3 16 -19 13 -200 l-3 -203 37 -63 c67 -111
56 -109 108 -20 l46 78 0 188 c0 180 1 187 20 187 19 0 20 -7 20 -130 l0 -130
24 0 c44 0 180 78 240 138 32 31 64 68 73 82 17 30 102 65 117 50 15 -15 223
-13 228 2 4 10 10 10 33 0 18 -8 69 -12 147 -11 l119 1 -6 30 c-6 23 -4 29 6
26 8 -3 13 -16 11 -32 -3 -26 -2 -26 66 -26 63 0 70 -2 98 -31 27 -28 33 -30
81 -27 29 3 74 16 103 31 29 15 68 27 89 27 45 0 81 33 81 73 0 31 -23 45 -45
27 -12 -10 -15 -7 -21 16 -4 15 -2 40 4 56 6 16 6 30 1 33 -12 8 54 65 75 65
9 0 16 5 16 11 0 6 7 9 15 5 12 -4 13 3 9 38 l-6 44 58 22 c63 24 156 31 234
17 l45 -8 -35 27 c-69 52 -138 77 -219 79 -42 1 -84 6 -94 10 -20 8 -126 2
-262 -16 -69 -9 -264 -26 -317 -28 -12 -1 -18 -9 -18 -26 l0 -25 94 6 c134 10
147 4 161 -65 2 -11 -7 -31 -20 -45 -16 -18 -19 -26 -10 -26 22 0 28 -19 26
-87 -1 -39 3 -70 10 -79 15 -18 3 -32 -13 -16 -7 7 -32 12 -56 12 l-43 0 2 58
c3 65 -4 82 -29 81 -9 0 -12 -3 -6 -5 6 -3 8 -22 4 -54 -3 -27 -5 -56 -4 -65
2 -12 -8 -15 -46 -15 -27 0 -57 -3 -67 -7 -16 -6 -16 -5 -4 10 16 20 17 78 2
104 -9 15 -10 13 -11 -15 0 -23 -9 -42 -29 -63 -26 -25 -37 -29 -86 -29 -51 0
-60 3 -90 33 -33 33 -34 35 -29 101 6 77 -6 96 -58 96 -18 0 -28 -4 -23 -8 6
-4 10 -58 10 -124 0 -74 -3 -114 -9 -108 -16 16 -109 13 -100 -2 4 -7 4 -10
-1 -6 -10 10 -13 238 -2 231 4 -2 7 1 7 6 0 13 -57 15 -64 2 -4 -5 4 -7 16 -5
21 4 22 4 3 -5 -32 -15 -35 -13 -35 24 l0 35 53 0 c48 1 80 3 165 15 27 3 32
0 32 -16 0 -19 1 -19 26 -3 16 11 54 19 104 22 74 4 80 3 105 -22 14 -14 23
-31 20 -36 -3 -6 -2 -10 3 -10 6 0 10 16 9 35 -1 21 -6 35 -13 35 -7 0 -14 12
-16 28 -2 20 -8 26 -23 25 -11 -1 -72 -3 -135 -4 -63 -1 -135 -5 -160 -11 -25
-5 -72 -8 -105 -8 -73 1 -89 14 -136 108 -69 137 -249 279 -376 298 l-43 7 0
-71 0 -70 50 -17 c27 -9 52 -21 55 -26 4 -5 19 -9 36 -9 19 0 29 -5 29 -15 0
-8 14 -39 30 -68 17 -30 30 -58 30 -63 0 -6 -15 -15 -33 -22 -19 -7 -44 -23
-57 -37 l-23 -24 23 -19 c16 -13 21 -24 16 -40 -4 -13 -13 -19 -22 -15 -8 3
-24 3 -37 -1 -21 -5 -22 -10 -25 -123 -3 -111 -11 -149 -26 -124 -4 5 -13 8
-20 5 -8 -3 -21 5 -30 18 -9 13 -21 23 -27 23 -7 0 -18 11 -27 25 l-14 25 21
-25 c11 -14 21 -20 21 -15 -1 15 -59 82 -60 68 0 -7 4 -13 9 -13 5 0 7 -18 4
-40 -4 -25 -1 -46 7 -55 15 -18 7 -31 -12 -19 -16 11 -24 11 -70 3 -35 -6 -50
2 -29 15 10 7 3 46 -8 46 -4 0 -18 -11 -31 -25 -23 -24 -17 -35 8 -15 9 7 9 7
2 -2 -6 -7 -30 -13 -53 -13 -23 -1 -53 -4 -67 -9 -14 -4 -20 -4 -14 1 7 5 -2
14 -25 25 -35 17 -36 17 -13 -2 12 -10 22 -22 22 -26 0 -4 -11 3 -24 15 -14
13 -22 29 -20 36 3 7 1 16 -5 20 -7 3 -11 41 -11 90 0 102 7 109 113 106 68
-2 103 -12 120 -35 5 -6 7 -2 4 12 -5 21 -2 22 48 22 47 0 56 -4 78 -30 30
-36 33 -36 40 -9 4 14 -1 23 -16 29 -19 8 -18 9 11 9 34 1 87 33 75 45 -3 3
-17 6 -30 6 -22 0 -23 4 -23 65 l0 65 65 0 65 0 0 35 0 35 -91 0 -92 0 7 108
c3 59 9 146 13 195 l6 87 -62 0 c-55 0 -61 -2 -61 -20z m1688 -527 c-10 -2
-18 -9 -18 -14 0 -6 3 -8 8 -6 9 6 7 -97 -2 -112 -4 -6 -5 -15 -1 -20 9 -15
-23 -40 -44 -34 -10 3 -22 0 -25 -6 -4 -6 -4 -11 1 -11 4 0 8 -36 8 -79 0 -61
-3 -77 -12 -69 -7 5 -34 8 -61 6 l-49 -3 3 38 c2 20 6 54 8 75 3 33 0 40 -25
55 -37 21 -47 48 -39 103 6 36 4 44 -9 44 -10 0 -12 3 -4 11 5 5 34 9 64 7
l54 -3 3 -55 c2 -30 6 -57 8 -60 12 -11 20 24 17 74 -2 53 -1 55 25 59 37 6
111 6 90 0z m-1130 -29 c12 -8 31 -34 42 -56 23 -48 25 -57 8 -40 -7 7 -35 12
-64 12 -37 0 -54 4 -58 15 -6 16 -51 21 -60 6 -4 -5 4 -7 16 -4 17 3 19 2 9
-5 -21 -15 -6 -29 69 -67 38 -19 71 -38 73 -43 3 -4 19 -9 36 -10 26 -2 30 1
28 20 -1 14 4 23 16 26 15 3 17 -4 17 -53 l0 -56 -32 3 c-32 3 -53 28 -24 28
9 0 16 5 16 10 0 12 -3 12 -24 4 -9 -3 -16 -17 -16 -29 0 -13 -4 -27 -10 -30
-5 -3 -10 -11 -10 -16 0 -6 5 -7 10 -4 18 11 11 -1 -12 -21 -12 -10 -18 -13
-13 -5 6 11 4 13 -11 6 -10 -4 -47 -13 -82 -19 -35 -6 -60 -15 -55 -19 4 -5 0
-5 -10 -1 -9 3 -14 10 -11 15 5 8 -18 13 -53 12 -7 0 -12 2 -11 6 4 13 -14 51
-23 51 -5 0 -9 5 -9 11 0 5 6 7 13 3 6 -4 8 -3 4 1 -12 14 -35 14 -47 0 -15
-18 22 -101 49 -110 25 -8 26 -18 4 -40 -15 -15 -19 -14 -54 27 -35 40 -38 48
-39 106 l0 62 43 2 c73 3 116 -9 166 -44 26 -18 51 -10 51 18 0 17 -83 66
-114 68 -14 0 -23 3 -20 5 2 2 -8 17 -21 33 -39 47 -31 99 20 126 32 18 166
15 193 -4z m-2153 -134 c11 -18 -5 -30 -25 -18 -10 7 -16 16 -14 20 7 11 32
10 39 -2z m2207 -32 c-7 -7 -12 -8 -12 -2 0 14 12 26 19 19 2 -3 -1 -11 -7
-17z m258 -47 c0 -36 -4 -48 -15 -48 -18 0 -28 31 -21 67 2 14 5 28 5 32 1 4
8 5 16 2 10 -4 15 -21 15 -53z m610 -25 c0 -14 -5 -17 -22 -12 -13 3 -29 6
-35 6 -8 0 -13 15 -13 40 l0 41 35 -28 c19 -15 35 -36 35 -47z m-3070 -75 c0
-12 -20 -25 -27 -18 -7 7 6 27 18 27 5 0 9 -4 9 -9z m1018 -3 c8 -10 2 -13
-26 -15 -35 -2 -36 -2 -12 12 14 7 26 13 26 14 1 1 6 -5 12 -11z m332 -49 c0
-5 -4 -9 -10 -9 -5 0 -10 7 -10 16 0 8 5 12 10 9 6 -3 10 -10 10 -16z m-1000
1 c0 -5 -9 -10 -20 -10 -11 0 -20 5 -20 10 0 6 9 10 20 10 11 0 20 -4 20 -10z
m94 -18 c3 -4 -11 -9 -30 -9 -19 -1 -34 3 -34 8 0 11 57 12 64 1z m466 -8 c0
-8 -4 -12 -10 -9 -5 3 -10 10 -10 16 0 5 5 9 10 9 6 0 10 -7 10 -16z m40 6 c0
-5 -2 -10 -4 -10 -3 0 -8 5 -11 10 -3 6 -1 10 4 10 6 0 11 -4 11 -10z m90 -11
c0 -15 -4 -19 -16 -15 -9 3 -18 6 -20 6 -2 0 -4 7 -4 15 0 8 9 15 20 15 14 0
20 -7 20 -21z m110 12 c0 -6 -4 -13 -10 -16 -5 -3 -10 1 -10 9 0 9 5 16 10 16
6 0 10 -4 10 -9z m-650 -16 c0 -8 -4 -15 -10 -15 -5 0 -10 7 -10 15 0 8 5 15
10 15 6 0 10 -7 10 -15z m1530 5 c0 -5 -4 -10 -9 -10 -6 0 -13 5 -16 10 -3 6
1 10 9 10 9 0 16 -4 16 -10z m-710 -10 c0 -5 -4 -10 -10 -10 -5 0 -10 5 -10
10 0 6 5 10 10 10 6 0 10 -4 10 -10z m-1110 -50 c0 -5 -4 -10 -10 -10 -5 0
-10 5 -10 10 0 6 5 10 10 10 6 0 10 -4 10 -10z"/>
<path d="M3939 1263 c-13 -16 -12 -17 4 -4 16 13 21 21 13 21 -2 0 -10 -8 -17
-17z"/>
<path d="M2158 1801 c-144 -46 -293 -191 -344 -334 -13 -36 -12 -40 11 -64 25
-28 25 -46 0 -36 -8 3 -15 0 -15 -6 0 -16 91 -13 113 3 24 18 21 26 -8 26 -35
0 -40 22 -13 55 69 83 97 110 148 149 56 43 67 47 168 68 58 13 57 11 46 106
-8 60 -14 62 -106 33z"/>
<path d="M997 1430 c-4 -14 -10 -18 -24 -14 -15 6 -16 4 -6 -7 8 -7 37 -14 69
-14 36 -1 59 -7 65 -16 5 -8 9 -52 10 -99 1 -64 3 -76 9 -50 l7 35 2 -37 c0
-24 -4 -38 -11 -38 -9 0 -9 -3 -1 -11 23 -23 30 3 25 101 l-5 100 47 0 c42 0
46 2 46 24 0 23 -3 24 -97 30 -54 4 -105 9 -114 12 -11 3 -18 -3 -22 -16z"/>
<path d="M1254 1400 c1 -20 7 -23 51 -26 44 -4 55 -9 85 -44 20 -22 38 -40 40
-40 3 0 5 14 5 30 1 23 -4 30 -18 30 -10 0 -17 5 -15 11 4 12 8 12 56 3 34 -7
92 21 76 36 -5 5 -70 12 -145 15 l-136 8 1 -23z"/>
<path d="M1620 1379 c0 -18 5 -21 35 -17 19 2 35 0 35 -4 0 -4 9 -8 21 -8 32
0 56 -17 64 -47 l8 -28 7 25 c4 14 2 31 -3 38 -6 8 -6 12 2 12 6 0 11 7 11 15
0 22 -42 35 -116 35 -58 0 -64 -2 -64 -21z"/>
<path d="M820 1350 c0 -5 3 -10 8 -10 4 0 6 -35 4 -77 -2 -71 -1 -76 13 -59 8
11 15 14 15 8 0 -7 5 -12 10 -12 14 0 13 96 -2 123 -10 20 -10 21 6 8 14 -12
16 -12 11 2 -9 21 -65 37 -65 17z m40 -80 c0 -5 -2 -10 -4 -10 -3 0 -8 5 -11
10 -3 6 -1 10 4 10 6 0 11 -4 11 -10z"/>
<path d="M1246 1351 c-10 -16 -5 -234 5 -254 16 -29 40 -4 29 32 -4 15 -8 65
-8 112 0 46 -1 92 -1 102 -1 18 -16 23 -25 8z"/>
<path d="M3540 1329 c0 -5 4 -7 10 -4 6 3 7 -1 4 -9 -7 -18 4 -20 25 -7 7 5
10 14 7 20 -9 14 -46 14 -46 0z"/>
<path d="M3289 1326 c-1 -11 -1 -86 1 -123 l2 -38 8 30 8 30 1 -29 c2 -58 20
-11 22 59 2 65 1 70 -19 73 -12 2 -22 1 -23 -2z"/>
<path d="M1640 1300 c-8 -5 -10 -10 -5 -10 6 0 9 -24 7 -60 -4 -55 -2 -60 17
-60 15 0 21 6 21 21 0 11 -4 17 -10 14 -5 -3 -10 1 -10 10 0 9 4 14 9 10 5 -3
12 -1 16 5 3 5 29 10 56 10 36 0 49 4 47 12 -6 16 -76 29 -84 16 -4 -6 -11 0
-18 13 -13 27 -26 32 -46 19z"/>
<path d="M2117 1293 c-3 -5 8 -8 24 -9 15 -1 26 3 23 7 -6 11 -41 12 -47 2z"/>
<path d="M305 1269 c-33 -3 -78 -11 -99 -19 -33 -10 -36 -14 -22 -22 10 -5 41
-7 69 -4 29 3 65 6 80 6 15 1 40 6 55 12 15 6 41 10 57 9 17 -2 27 0 24 3 -12
13 -105 21 -164 15z"/>
<path d="M2127 1273 c-4 -3 -7 -28 -7 -55 0 -42 3 -49 17 -46 21 4 27 28 18
74 -6 33 -14 41 -28 27z"/>
<path d="M4260 1273 c-54 -9 -130 -34 -130 -43 0 -21 41 -29 121 -24 46 3 118
7 160 8 42 2 81 6 87 10 6 3 23 1 38 -4 49 -19 36 -3 -17 19 -78 34 -180 47
-259 34z m60 -33 c0 -5 -5 -10 -11 -10 -5 0 -7 5 -4 10 3 6 8 10 11 10 2 0 4
-4 4 -10z m117 -6 c-3 -3 -12 -4 -19 -1 -8 3 -5 6 6 6 11 1 17 -2 13 -5z"/>
<path d="M1780 1163 c1 -42 3 -53 10 -42 11 19 9 99 -2 99 -5 0 -8 -26 -8 -57z"/>
<path d="M492 1183 c-8 -3 -1 -12 20 -23 30 -16 35 -16 56 -2 18 11 20 17 10
23 -14 9 -65 11 -86 2z"/>
<path d="M1000 1174 c0 -8 5 -12 10 -9 6 4 8 11 5 16 -9 14 -15 11 -15 -7z"/>
<path d="M4118 1164 c13 -9 30 -13 40 -9 14 5 14 7 2 15 -8 6 -26 10 -40 10
l-24 0 22 -16z"/>
<path d="M4038 1133 c-9 -10 -21 -28 -28 -41 -14 -28 -7 -35 79 -78 122 -63
266 -35 407 77 38 30 38 30 9 23 -17 -4 -46 -14 -65 -22 -76 -31 -271 -7 -342
42 -29 20 -41 20 -60 -1z"/>
<path d="M965 1110 c-3 -5 -20 -14 -38 -19 -23 -7 -26 -9 -11 -10 12 -1 32 8
45 19 13 10 21 19 17 20 -4 0 -10 -4 -13 -10z"/>
<path d="M1178 1083 c6 -2 18 -2 25 0 6 3 1 5 -13 5 -14 0 -19 -2 -12 -5z"/>
<path d="M778 901 c-53 -59 -78 -69 -103 -41 -18 20 -30 21 -110 3 -11 -2 -29
-6 -40 -7 -48 -8 -46 -9 21 -15 56 -6 78 -13 108 -36 36 -27 38 -28 69 -12 18
9 44 24 59 33 26 17 27 17 80 -20 29 -20 74 -52 100 -72 l46 -35 66 62 66 62
174 -5 c156 -4 174 -3 169 11 -3 12 -1 11 7 -2 10 -15 25 -18 116 -16 58 1
107 6 110 11 3 4 16 8 29 8 29 0 41 16 19 24 -29 11 -140 6 -153 -6 -11 -10
-14 -10 -18 0 -3 6 -20 12 -39 12 -26 0 -34 -4 -34 -17 -1 -17 -1 -17 -14 0
-12 15 -34 17 -198 17 l-185 0 -46 -35 c-25 -19 -49 -35 -52 -35 -3 0 8 20 24
44 l30 43 148 2 c154 2 210 7 230 23 7 5 14 5 18 -2 3 -5 28 -10 56 -10 41 0
49 3 49 19 0 28 -61 40 -166 30 -49 -4 -152 -13 -229 -19 -150 -12 -144 -10
-194 -78 l-19 -27 -70 68 c-39 37 -72 67 -75 67 -3 0 -25 -22 -49 -49z"/>
<path d="M3096 923 c-43 -13 -76 -26 -75 -28 2 -2 123 -6 269 -10 146 -4 275
-8 288 -9 16 -1 35 -17 60 -51 20 -27 30 -45 22 -39 -8 6 -33 24 -56 42 l-41
31 -340 1 c-186 0 -343 -3 -346 -7 -4 -4 19 -15 50 -25 53 -17 81 -18 335 -12
l277 6 65 -57 c35 -31 67 -57 71 -57 4 -1 50 30 103 67 l96 68 28 -16 c15 -10
40 -24 56 -33 26 -16 29 -16 77 15 41 26 59 31 109 31 32 0 57 2 54 5 -2 3
-42 11 -89 20 -82 14 -84 14 -106 -7 l-23 -22 -38 35 c-20 19 -49 45 -63 57
l-26 23 -72 -67 c-39 -37 -73 -65 -74 -63 -2 2 -17 23 -35 45 l-32 42 -87 6
c-49 4 -133 11 -188 17 -185 18 -187 17 -269 -8z"/>
<path d="M1880 933 c0 -4 16 -26 36 -48 l37 -40 -26 45 c-25 42 -47 63 -47 43z"/>
<path d="M1600 909 c0 -13 24 -22 47 -17 13 3 9 7 -14 15 -20 7 -33 8 -33 2z"/>
</g>
</svg>
