<svg width="24" height="24" viewBox="0 0 24 24" fill="none" xmlns="http://www.w3.org/2000/svg">
<path fill-rule="evenodd" clip-rule="evenodd" d="M12 4C7.58172 4 4 7.58172 4 12C4 16.4183 7.58172 20 12 20C16.4183 20 20 16.4183 20 12C20 7.58172 16.4183 4 12 4ZM2 12C2 6.47715 6.47715 2 12 2C17.5228 2 22 6.47715 22 12C22 17.5228 17.5228 22 12 22C6.47715 22 2 17.5228 2 12Z" fill="black"/>
<path d="M11 9.5C11 10.3284 10.3284 11 9.5 11C8.67157 11 8 10.3284 8 9.5C8 8.67157 8.67157 8 9.5 8C10.3284 8 11 8.67157 11 9.5Z" fill="black"/>
<path fill-rule="evenodd" clip-rule="evenodd" d="M9.5 10C9.77614 10 10 9.77614 10 9.5C10 9.22386 9.77614 9 9.5 9C9.22386 9 9 9.22386 9 9.5C9 9.77614 9.22386 10 9.5 10ZM9.5 11C10.3284 11 11 10.3284 11 9.5C11 8.67157 10.3284 8 9.5 8C8.67157 8 8 8.67157 8 9.5C8 10.3284 8.67157 11 9.5 11Z" fill="black"/>
<path d="M16 9.5C16 10.3284 15.3284 11 14.5 11C13.6716 11 13 10.3284 13 9.5C13 8.67157 13.6716 8 14.5 8C15.3284 8 16 8.67157 16 9.5Z" fill="black"/>
<path fill-rule="evenodd" clip-rule="evenodd" d="M14.5 10C14.7761 10 15 9.77614 15 9.5C15 9.22386 14.7761 9 14.5 9C14.2239 9 14 9.22386 14 9.5C14 9.77614 14.2239 10 14.5 10ZM14.5 11C15.3284 11 16 10.3284 16 9.5C16 8.67157 15.3284 8 14.5 8C13.6716 8 13 8.67157 13 9.5C13 10.3284 13.6716 11 14.5 11Z" fill="black"/>
<path fill-rule="evenodd" clip-rule="evenodd" d="M7.42662 13.1808C7.87907 12.8641 8.5026 12.9741 8.81932 13.4266C9.30834 14.1252 10.2125 14.9219 11.291 15.1459C12.275 15.3503 13.6411 15.1262 15.2568 13.3311C15.6263 12.9206 16.2585 12.8873 16.6691 13.2567C17.0796 13.6262 17.1128 14.2585 16.7434 14.669C14.759 16.8738 12.7085 17.4831 10.8842 17.1041C9.15432 16.7448 7.8585 15.5415 7.18085 14.5735C6.86414 14.121 6.97417 13.4975 7.42662 13.1808Z" fill="black"/>
</svg>
